<mxfile host="app.diagrams.net" agent="Mozilla/5.0 (Macintosh; Intel Mac OS X 10_15_7) AppleWebKit/605.1.15 (KHTML, like Gecko) Version/16.6 Safari/605.1.15" version="24.7.7">
  <diagram name="Page-1" id="7Tb53v2nf2DUyBZa-c6o">
    <mxGraphModel dx="2316" dy="2087" grid="1" gridSize="10" guides="1" tooltips="1" connect="1" arrows="1" fold="1" page="1" pageScale="1" pageWidth="850" pageHeight="1100" math="0" shadow="0">
      <root>
        <mxCell id="0" />
        <mxCell id="1" parent="0" />
        <mxCell id="9S8Kf50l2ie6K4rebAup-16" value="Server" style="verticalLabelPosition=bottom;verticalAlign=top;html=1;shape=mxgraph.basic.patternFillRect;fillStyle=diag;step=5;fillStrokeWidth=0.2;fillStrokeColor=#dddddd;" vertex="1" parent="1">
          <mxGeometry x="270" y="150" width="310" height="620" as="geometry" />
        </mxCell>
        <mxCell id="9S8Kf50l2ie6K4rebAup-1" value="User" style="shape=umlActor;verticalLabelPosition=bottom;verticalAlign=top;html=1;outlineConnect=0;" vertex="1" parent="1">
          <mxGeometry x="-100" y="170" width="40" height="70" as="geometry" />
        </mxCell>
        <mxCell id="9S8Kf50l2ie6K4rebAup-10" style="edgeStyle=orthogonalEdgeStyle;rounded=0;orthogonalLoop=1;jettySize=auto;html=1;exitX=0.875;exitY=0.5;exitDx=0;exitDy=0;exitPerimeter=0;entryX=0;entryY=0.5;entryDx=0;entryDy=0;" edge="1" parent="1" source="9S8Kf50l2ie6K4rebAup-2" target="9S8Kf50l2ie6K4rebAup-3">
          <mxGeometry relative="1" as="geometry" />
        </mxCell>
        <mxCell id="9S8Kf50l2ie6K4rebAup-2" value="Voxemo&amp;nbsp;&lt;div&gt;web client&lt;/div&gt;" style="ellipse;shape=cloud;whiteSpace=wrap;html=1;" vertex="1" parent="1">
          <mxGeometry y="332.5" width="160" height="115" as="geometry" />
        </mxCell>
        <mxCell id="9S8Kf50l2ie6K4rebAup-13" style="edgeStyle=orthogonalEdgeStyle;rounded=0;orthogonalLoop=1;jettySize=auto;html=1;exitX=0.5;exitY=1;exitDx=0;exitDy=0;" edge="1" parent="1" source="9S8Kf50l2ie6K4rebAup-3" target="9S8Kf50l2ie6K4rebAup-12">
          <mxGeometry relative="1" as="geometry" />
        </mxCell>
        <mxCell id="9S8Kf50l2ie6K4rebAup-20" value="Byte stream" style="edgeLabel;html=1;align=center;verticalAlign=middle;resizable=0;points=[];" vertex="1" connectable="0" parent="9S8Kf50l2ie6K4rebAup-13">
          <mxGeometry x="-0.08" relative="1" as="geometry">
            <mxPoint as="offset" />
          </mxGeometry>
        </mxCell>
        <mxCell id="9S8Kf50l2ie6K4rebAup-30" style="edgeStyle=orthogonalEdgeStyle;rounded=0;orthogonalLoop=1;jettySize=auto;html=1;entryX=0.5;entryY=1;entryDx=0;entryDy=0;" edge="1" parent="1" source="9S8Kf50l2ie6K4rebAup-3" target="9S8Kf50l2ie6K4rebAup-27">
          <mxGeometry relative="1" as="geometry" />
        </mxCell>
        <mxCell id="9S8Kf50l2ie6K4rebAup-35" style="edgeStyle=orthogonalEdgeStyle;rounded=0;orthogonalLoop=1;jettySize=auto;html=1;exitX=1;exitY=0.5;exitDx=0;exitDy=0;entryX=1;entryY=0.5;entryDx=0;entryDy=0;endArrow=none;endFill=0;" edge="1" parent="1" source="9S8Kf50l2ie6K4rebAup-3" target="9S8Kf50l2ie6K4rebAup-32">
          <mxGeometry relative="1" as="geometry">
            <Array as="points">
              <mxPoint x="640" y="390" />
              <mxPoint x="640" y="330" />
              <mxPoint x="990" y="330" />
              <mxPoint x="990" y="653" />
            </Array>
          </mxGeometry>
        </mxCell>
        <mxCell id="9S8Kf50l2ie6K4rebAup-36" value="&amp;nbsp;Time-tagged acoustic metrics" style="edgeLabel;html=1;align=center;verticalAlign=middle;resizable=0;points=[];" vertex="1" connectable="0" parent="9S8Kf50l2ie6K4rebAup-35">
          <mxGeometry x="-0.2015" y="-3" relative="1" as="geometry">
            <mxPoint as="offset" />
          </mxGeometry>
        </mxCell>
        <mxCell id="9S8Kf50l2ie6K4rebAup-3" value="Node API" style="rounded=0;whiteSpace=wrap;html=1;" vertex="1" parent="1">
          <mxGeometry x="360" y="360" width="120" height="60" as="geometry" />
        </mxCell>
        <mxCell id="9S8Kf50l2ie6K4rebAup-6" value="" style="html=1;verticalLabelPosition=bottom;align=center;labelBackgroundColor=#ffffff;verticalAlign=top;strokeWidth=2;strokeColor=#0080F0;shadow=0;dashed=0;shape=mxgraph.ios7.icons.wifi;pointerEvents=1;rotation=90;" vertex="1" parent="1">
          <mxGeometry x="-40" y="160" width="60" height="51" as="geometry" />
        </mxCell>
        <mxCell id="9S8Kf50l2ie6K4rebAup-7" value="" style="verticalLabelPosition=bottom;aspect=fixed;html=1;shape=mxgraph.salesforce.web;" vertex="1" parent="1">
          <mxGeometry x="50" y="160" width="97.97" height="77.4" as="geometry" />
        </mxCell>
        <mxCell id="9S8Kf50l2ie6K4rebAup-9" style="edgeStyle=orthogonalEdgeStyle;rounded=0;orthogonalLoop=1;jettySize=auto;html=1;entryX=0.625;entryY=0.2;entryDx=0;entryDy=0;entryPerimeter=0;" edge="1" parent="1" source="9S8Kf50l2ie6K4rebAup-7" target="9S8Kf50l2ie6K4rebAup-2">
          <mxGeometry relative="1" as="geometry" />
        </mxCell>
        <mxCell id="9S8Kf50l2ie6K4rebAup-11" value="S3" style="shape=datastore;whiteSpace=wrap;html=1;" vertex="1" parent="1">
          <mxGeometry x="375" y="600" width="90" height="100" as="geometry" />
        </mxCell>
        <mxCell id="9S8Kf50l2ie6K4rebAup-14" style="edgeStyle=orthogonalEdgeStyle;rounded=0;orthogonalLoop=1;jettySize=auto;html=1;exitX=0.5;exitY=1;exitDx=0;exitDy=0;entryX=0.5;entryY=0;entryDx=0;entryDy=0;" edge="1" parent="1" source="9S8Kf50l2ie6K4rebAup-12" target="9S8Kf50l2ie6K4rebAup-11">
          <mxGeometry relative="1" as="geometry" />
        </mxCell>
        <mxCell id="9S8Kf50l2ie6K4rebAup-15" value="raw MP3" style="edgeLabel;html=1;align=center;verticalAlign=middle;resizable=0;points=[];" vertex="1" connectable="0" parent="9S8Kf50l2ie6K4rebAup-14">
          <mxGeometry x="0.0571" y="3" relative="1" as="geometry">
            <mxPoint as="offset" />
          </mxGeometry>
        </mxCell>
        <mxCell id="9S8Kf50l2ie6K4rebAup-18" style="edgeStyle=orthogonalEdgeStyle;rounded=0;orthogonalLoop=1;jettySize=auto;html=1;entryX=0;entryY=0.5;entryDx=0;entryDy=0;" edge="1" parent="1" source="9S8Kf50l2ie6K4rebAup-12" target="9S8Kf50l2ie6K4rebAup-17">
          <mxGeometry relative="1" as="geometry" />
        </mxCell>
        <mxCell id="9S8Kf50l2ie6K4rebAup-21" value="&amp;nbsp;raw MP3" style="edgeLabel;html=1;align=center;verticalAlign=middle;resizable=0;points=[];" vertex="1" connectable="0" parent="9S8Kf50l2ie6K4rebAup-18">
          <mxGeometry x="-0.0819" y="-2" relative="1" as="geometry">
            <mxPoint x="46" y="-2" as="offset" />
          </mxGeometry>
        </mxCell>
        <mxCell id="9S8Kf50l2ie6K4rebAup-33" style="edgeStyle=orthogonalEdgeStyle;rounded=0;orthogonalLoop=1;jettySize=auto;html=1;exitX=1;exitY=0.5;exitDx=0;exitDy=0;entryX=0;entryY=0.5;entryDx=0;entryDy=0;" edge="1" parent="1" source="9S8Kf50l2ie6K4rebAup-12" target="9S8Kf50l2ie6K4rebAup-32">
          <mxGeometry relative="1" as="geometry">
            <Array as="points">
              <mxPoint x="530" y="505" />
              <mxPoint x="530" y="653" />
            </Array>
          </mxGeometry>
        </mxCell>
        <mxCell id="9S8Kf50l2ie6K4rebAup-12" value="ffmpeg" style="rounded=1;whiteSpace=wrap;html=1;absoluteArcSize=1;arcSize=14;strokeWidth=1;" vertex="1" parent="1">
          <mxGeometry x="365" y="470" width="110" height="70" as="geometry" />
        </mxCell>
        <mxCell id="9S8Kf50l2ie6K4rebAup-17" value="&lt;div&gt;&lt;font style=&quot;font-size: 16px;&quot;&gt;Transcribe&amp;nbsp;&lt;/font&gt;&lt;/div&gt;&lt;div&gt;OpenAI Whisper&lt;/div&gt;" style="rounded=1;whiteSpace=wrap;html=1;absoluteArcSize=1;arcSize=14;strokeWidth=1;" vertex="1" parent="1">
          <mxGeometry x="710" y="457.5" width="200" height="95" as="geometry" />
        </mxCell>
        <mxCell id="9S8Kf50l2ie6K4rebAup-19" value="Kafka Topic&lt;div&gt;Acoustic Metrics&lt;/div&gt;" style="whiteSpace=wrap;html=1;align=center;" vertex="1" parent="1">
          <mxGeometry x="770" y="-40" width="130" height="90" as="geometry" />
        </mxCell>
        <mxCell id="9S8Kf50l2ie6K4rebAup-25" style="edgeStyle=orthogonalEdgeStyle;rounded=0;orthogonalLoop=1;jettySize=auto;html=1;exitX=0.5;exitY=0;exitDx=0;exitDy=0;entryX=1;entryY=0.5;entryDx=0;entryDy=0;" edge="1" parent="1" source="9S8Kf50l2ie6K4rebAup-17" target="9S8Kf50l2ie6K4rebAup-3">
          <mxGeometry relative="1" as="geometry">
            <Array as="points">
              <mxPoint x="800" y="458" />
              <mxPoint x="800" y="390" />
            </Array>
          </mxGeometry>
        </mxCell>
        <mxCell id="9S8Kf50l2ie6K4rebAup-26" value="Time-tagged raw text" style="edgeLabel;html=1;align=center;verticalAlign=middle;resizable=0;points=[];" vertex="1" connectable="0" parent="9S8Kf50l2ie6K4rebAup-25">
          <mxGeometry x="0.1175" y="2" relative="1" as="geometry">
            <mxPoint x="75" y="-2" as="offset" />
          </mxGeometry>
        </mxCell>
        <mxCell id="9S8Kf50l2ie6K4rebAup-43" style="edgeStyle=orthogonalEdgeStyle;rounded=0;orthogonalLoop=1;jettySize=auto;html=1;exitX=0.75;exitY=0;exitDx=0;exitDy=0;entryX=0;entryY=0.5;entryDx=0;entryDy=0;" edge="1" parent="1" source="9S8Kf50l2ie6K4rebAup-27" target="9S8Kf50l2ie6K4rebAup-19">
          <mxGeometry relative="1" as="geometry" />
        </mxCell>
        <mxCell id="9S8Kf50l2ie6K4rebAup-44" style="edgeStyle=orthogonalEdgeStyle;rounded=0;orthogonalLoop=1;jettySize=auto;html=1;exitX=0.25;exitY=0;exitDx=0;exitDy=0;entryX=0;entryY=0.5;entryDx=0;entryDy=0;" edge="1" parent="1" source="9S8Kf50l2ie6K4rebAup-27" target="9S8Kf50l2ie6K4rebAup-46">
          <mxGeometry relative="1" as="geometry">
            <mxPoint x="750" y="-200" as="targetPoint" />
          </mxGeometry>
        </mxCell>
        <mxCell id="9S8Kf50l2ie6K4rebAup-27" value="Kafka Producer" style="rounded=0;whiteSpace=wrap;html=1;" vertex="1" parent="1">
          <mxGeometry x="343.75" y="230" width="152.5" height="70" as="geometry" />
        </mxCell>
        <mxCell id="9S8Kf50l2ie6K4rebAup-32" value="Paralinguistic/Acoustic&amp;nbsp;&lt;div&gt;Feature Extraction&lt;/div&gt;" style="rounded=1;whiteSpace=wrap;html=1;absoluteArcSize=1;arcSize=14;strokeWidth=1;" vertex="1" parent="1">
          <mxGeometry x="710" y="605" width="200" height="95" as="geometry" />
        </mxCell>
        <mxCell id="9S8Kf50l2ie6K4rebAup-37" value="Spark Cluster" style="verticalLabelPosition=bottom;verticalAlign=top;html=1;shape=mxgraph.basic.patternFillRect;fillStyle=diag;step=5;fillStrokeWidth=0.2;fillStrokeColor=#dddddd;" vertex="1" parent="1">
          <mxGeometry x="1080" y="150" width="310" height="620" as="geometry" />
        </mxCell>
        <mxCell id="9S8Kf50l2ie6K4rebAup-40" style="edgeStyle=orthogonalEdgeStyle;rounded=0;orthogonalLoop=1;jettySize=auto;html=1;exitX=0.5;exitY=0;exitDx=0;exitDy=0;entryX=1;entryY=0.5;entryDx=0;entryDy=0;startArrow=classic;startFill=1;endArrow=none;endFill=0;" edge="1" parent="1" source="9S8Kf50l2ie6K4rebAup-39" target="9S8Kf50l2ie6K4rebAup-19">
          <mxGeometry relative="1" as="geometry" />
        </mxCell>
        <mxCell id="9S8Kf50l2ie6K4rebAup-49" style="edgeStyle=orthogonalEdgeStyle;rounded=0;orthogonalLoop=1;jettySize=auto;html=1;exitX=0.5;exitY=0;exitDx=0;exitDy=0;entryX=1;entryY=0.5;entryDx=0;entryDy=0;startArrow=classic;startFill=1;endArrow=none;endFill=0;" edge="1" parent="1" source="9S8Kf50l2ie6K4rebAup-39" target="9S8Kf50l2ie6K4rebAup-46">
          <mxGeometry relative="1" as="geometry" />
        </mxCell>
        <mxCell id="9S8Kf50l2ie6K4rebAup-39" value="Kafka Consumer" style="rounded=0;whiteSpace=wrap;html=1;" vertex="1" parent="1">
          <mxGeometry x="1172.5" y="230" width="125" height="70" as="geometry" />
        </mxCell>
        <mxCell id="9S8Kf50l2ie6K4rebAup-41" value="" style="strokeWidth=2;html=1;shape=mxgraph.flowchart.database;whiteSpace=wrap;" vertex="1" parent="1">
          <mxGeometry x="1182.5" y="350" width="105" height="80" as="geometry" />
        </mxCell>
        <mxCell id="9S8Kf50l2ie6K4rebAup-46" value="Kafka Topic&lt;div&gt;Speech&lt;/div&gt;" style="whiteSpace=wrap;html=1;align=center;" vertex="1" parent="1">
          <mxGeometry x="770" y="-170" width="130" height="90" as="geometry" />
        </mxCell>
      </root>
    </mxGraphModel>
  </diagram>
</mxfile>
